# xmcd
#
# Track frame offsets:
#  150
#  21024
#  41723
#  57248
#  78160
#  98293
#  114799
#  132419
#  151788
#  172713
#  192185
#  210774
#  237525
#  251561
#  272245
#  293627
#  313086
#  335397
#
# Disc length: 4764 seconds
#
# Revision: 0
# Processed by: cddbd v1.4PL0 Copyright (c) Steve Scherf et al.
# Submitted via: AltoMP3_Maker 3.0
#
DISCID=e2129a12
DTITLE=许志安等 - 寂寞恋人心（2）
DYEAR=1900
DGENRE=
TTITLE0=流星雨
TTITLE1=情非得已
TTITLE2=橄榄树
TTITLE3=你是我最深爱的人
TTITLE4=我们的寂寞
TTITLE5=如果还都不算爱
TTITLE6=默读伤悲
TTITLE7=飞鸟
TTITLE8=流年
TTITLE9=狠不下心
TTITLE10=寂寞的恋人啊
TTITLE11=下沙
TTITLE12=透明
TTITLE13=失去联络
TTITLE14=爱在爱你`
TTITLE15=汽球
TTITLE16=恋上一个人
TTITLE17=我喜欢
EXTD=
EXTT0=
EXTT1=
EXTT2=
EXTT3=
EXTT4=
EXTT5=
EXTT6=
EXTT7=
EXTT8=
EXTT9=
EXTT10=
EXTT11=
EXTT12=
EXTT13=
EXTT14=
EXTT15=
EXTT16=
EXTT17=
PLAYORDER=
